<?xml version="1.0" encoding="utf-8"?>
<!-- Generator: Adobe Illustrator 22.0.1, SVG Export Plug-In . SVG Version: 6.00 Build 0)  -->
<svg version="1.1" id="Layer_1" xmlns="http://www.w3.org/2000/svg" xmlns:xlink="http://www.w3.org/1999/xlink" x="0px" y="0px"
	 viewBox="0 0 24 24" style="enable-background:new 0 0 24 24;" xml:space="preserve">
<style type="text/css">
	.st0{fill:#FFFFFF;}
	.st1{fill:#FCC624;}
	.st2{fill:#FFFFFF;stroke:#000000;stroke-miterlimit:10;}
</style>
<g>
	<title>Linux icon</title>
	<path d="M12.5,0c-0.2,0-0.3,0-0.5,0C7.8,0.4,8.9,4.8,8.9,6.3c-0.1,1.1-0.3,2-1.1,3c-0.9,1.1-2.1,2.8-2.7,4.5
		c-0.3,0.8-0.4,1.7-0.3,2.5c0,0-0.1,0.1-0.1,0.1c-0.3,0.3-0.4,0.6-0.7,0.8c-0.2,0.2-0.5,0.3-0.8,0.4c-0.3,0.1-0.7,0.3-0.9,0.7
		c-0.1,0.2-0.1,0.4-0.1,0.6c0,0.2,0,0.4,0.1,0.5c0.1,0.4,0.1,0.7,0,1C2.1,21.2,2,21.7,2.2,22c0.2,0.3,0.5,0.5,0.9,0.6
		c0.8,0.2,1.9,0.1,2.8,0.6c0.9,0.5,1.9,0.7,2.6,0.5c0.5-0.1,1-0.5,1.2-0.9c0.6,0,1.2-0.3,2.3-0.3c0.7-0.1,1.6,0.3,2.6,0.2
		c0,0.1,0.1,0.2,0.1,0.3l0,0c0.4,0.8,1.1,1.1,1.9,1.1c0.8-0.1,1.6-0.5,2.3-1.3c0.6-0.8,1.7-1.1,2.4-1.5c0.3-0.2,0.6-0.5,0.6-0.9
		c0-0.4-0.2-0.8-0.7-1.4v-0.1l0,0c-0.2-0.2-0.3-0.5-0.3-0.9c-0.1-0.4-0.2-0.8-0.5-1h0c-0.1-0.1-0.1-0.1-0.2-0.1
		c-0.1,0-0.1-0.1-0.2-0.1c0.4-1.3,0.3-2.6-0.2-3.7c-0.5-1.4-1.5-2.6-2.2-3.5c-0.8-1-1.6-2-1.6-3.4C16.1,4,16.3,0,12.5,0z"/>
	<path class="st0" d="M13,3.4L13,3.4c0.2,0,0.4,0.1,0.6,0.2c0.2,0.1,0.3,0.3,0.4,0.5c0.1,0.3,0.2,0.5,0.2,0.7c0,0,0,0,0-0.1v0.1
		c0,0,0,0,0,0l0,0c0,0.2-0.1,0.5-0.1,0.7c0,0.1-0.1,0.2-0.2,0.3c0,0-0.1,0-0.1,0c-0.1,0-0.2-0.1-0.3-0.1c-0.1,0-0.1-0.1-0.2-0.1
		c0-0.1,0.1-0.1,0.2-0.2c0.1-0.1,0.1-0.3,0.1-0.4v0c0-0.1,0-0.3-0.1-0.4c0-0.1-0.1-0.2-0.2-0.3c-0.1-0.1-0.2-0.1-0.3-0.1h0
		c-0.1,0-0.2,0-0.3,0.1c-0.1,0.1-0.2,0.2-0.2,0.3c-0.1,0.1-0.1,0.3-0.1,0.4v0c0,0.1,0,0.2,0,0.3c-0.2-0.1-0.4-0.1-0.6-0.2
		c0-0.1,0-0.1,0-0.2v0c0-0.3,0-0.5,0.1-0.8c0.1-0.2,0.2-0.4,0.4-0.5C12.6,3.5,12.8,3.4,13,3.4z"/>
	<path class="st0" d="M10.1,3.5L10.1,3.5c0.2,0,0.3,0,0.4,0.1c0.1,0.1,0.3,0.3,0.3,0.5C10.9,4.3,11,4.5,11,4.7v0c0,0.1,0,0.2,0,0.3
		v0.1c0,0-0.1,0-0.1,0c-0.2,0.1-0.3,0.1-0.4,0.2c0-0.1,0-0.2,0-0.3v0c0-0.1,0-0.2-0.1-0.3c0-0.1-0.1-0.2-0.2-0.3
		c0,0-0.1-0.1-0.2-0.1h0c-0.1,0-0.1,0-0.2,0.1C9.8,4.6,9.8,4.7,9.8,4.8c0,0.1,0,0.2,0,0.3v0c0,0.1,0,0.2,0.1,0.3
		c0,0.1,0.1,0.2,0.2,0.3c0,0,0,0,0,0C10,5.8,9.9,5.8,9.9,5.9c0,0-0.1,0.1-0.1,0.1C9.6,5.8,9.5,5.7,9.4,5.5C9.3,5.3,9.3,5.1,9.3,4.9
		c0-0.2,0-0.5,0.1-0.7C9.4,4,9.5,3.8,9.7,3.7C9.8,3.5,9.9,3.5,10.1,3.5z"/>
	<path class="st1" d="M11.4,5.2c0.3,0,0.7,0.1,1.2,0.4c0.3,0.2,0.5,0.3,1.1,0.5h0c0.3,0.1,0.4,0.3,0.5,0.4V6.3
		c0.1,0.1,0.1,0.3,0,0.5c-0.1,0.3-0.5,0.6-1.1,0.8v0c-0.3,0.1-0.5,0.3-0.8,0.5c-0.3,0.1-0.6,0.3-1,0.3c-0.2,0-0.3,0-0.4-0.1
		c-0.1-0.1-0.2-0.1-0.3-0.2C10.4,8,10.2,7.8,10,7.6v0h0C9.6,7.4,9.4,7.1,9.3,6.9c-0.1-0.3,0-0.5,0.2-0.6C9.7,6.2,9.9,6,10,6
		c0.1-0.1,0.1-0.1,0.2-0.1h0v0c0.2-0.2,0.4-0.5,0.8-0.6C11.1,5.2,11.3,5.2,11.4,5.2z"/>
	<path class="st2" d="M14.2,7.3c0.4,1.4,1.2,3.5,1.7,4.5c0.3,0.5,0.9,1.7,1.1,3c0.2,0,0.3,0,0.5,0.1c0.6-1.7-0.5-3.5-1.1-4
		c-0.2-0.2-0.2-0.3-0.1-0.3c0.6,0.5,1.4,1.6,1.6,2.8c0.1,0.5,0.2,1.1,0,1.7c0.1,0,0.1,0.1,0.2,0.1c1,0.5,1.4,0.9,1.2,1.5v0
		c-0.1,0-0.1,0-0.2,0h0c0.2-0.5-0.2-0.8-1.1-1.2c-0.9-0.4-1.6-0.3-1.8,0.5c0,0,0,0.1,0,0.1c-0.1,0-0.1,0.1-0.2,0.1
		c-0.4,0.3-0.7,0.7-0.8,1.2c-0.1,0.5-0.2,1.2-0.2,1.9v0c0,0.3-0.2,0.8-0.3,1.4c-1.5,1.1-3.6,1.5-5.3,0.3c-0.1-0.2-0.2-0.4-0.4-0.5
		C9.1,20.1,9,20,8.9,19.9c0.2,0,0.3,0,0.5-0.1c0.1-0.1,0.3-0.2,0.3-0.3c0.1-0.3,0-0.7-0.3-1.2c-0.3-0.5-0.9-1-1.8-1.5
		c-0.6-0.4-1-0.9-1.2-1.4c-0.2-0.5-0.1-1.1,0-1.6c0.2-1.1,0.9-2.1,1.3-2.8c0.1-0.1,0,0.1-0.4,1c-0.4,0.8-1.1,2.5-0.1,3.9
		c0-1,0.3-2,0.6-2.9c0.6-1.3,1.7-3.5,1.8-5.3c0,0,0.2,0.1,0.3,0.2c0.2,0.1,0.4,0.3,0.6,0.5c0.2,0.2,0.5,0.3,0.9,0.3c0,0,0.1,0,0.1,0
		c0.4,0,0.7-0.1,1-0.3C12.7,8.3,13,8.1,13.2,8h0C13.7,7.9,14,7.6,14.2,7.3z"/>
	<path class="st1" d="M16.4,16.3c0,0.6,0.3,1.2,0.9,1.4c0.6,0.1,1.4-0.3,1.8-0.8l0.2,0c0.3,0,0.6,0,0.8,0.3l0,0
		c0.2,0.2,0.3,0.5,0.4,0.9c0.1,0.4,0.2,0.8,0.4,1.1c0.5,0.5,0.6,0.9,0.6,1.1l0,0v0l0,0c0,0.3-0.2,0.4-0.5,0.6
		c-0.6,0.4-1.7,0.7-2.5,1.6c-0.6,0.7-1.4,1.1-2,1.2c-0.7,0.1-1.2-0.2-1.6-0.9l0,0c-0.2-0.4-0.1-1,0.1-1.7c0.2-0.7,0.4-1.3,0.5-1.9
		c0-0.7,0.1-1.3,0.2-1.8C15.9,16.8,16,16.5,16.4,16.3L16.4,16.3L16.4,16.3z"/>
	<path class="st1" d="M5.6,16.3L5.6,16.3c0.1,0,0.1,0,0.2,0c0.4,0.1,0.7,0.3,1,0.8l0.9,1.7l0,0c0.2,0.5,0.8,1.1,1.2,1.6
		C9.3,21,9.7,21.5,9.6,22v0c-0.1,0.7-0.5,1.1-1.1,1.3c-0.6,0.1-1.5,0-2.4-0.5c-1-0.5-2.1-0.5-2.9-0.6c-0.4-0.1-0.6-0.2-0.7-0.4
		c-0.1-0.2-0.1-0.6,0.1-1.2v0l0,0c0.1-0.3,0-0.8,0-1.1c-0.1-0.4-0.1-0.7,0-0.9c0.2-0.3,0.4-0.4,0.7-0.5c0.3-0.1,0.6-0.2,0.9-0.5h0v0
		c0.3-0.3,0.4-0.6,0.7-0.8C5.1,16.5,5.3,16.3,5.6,16.3z"/>
	<path d="M12.8,7.2c-0.4,0.2-0.9,0.5-1.5,0.5c-0.5,0-1-0.3-1.3-0.5C9.8,7.2,9.7,7,9.6,7C9.5,6.8,9.5,6.6,9.6,6.6
		c0.1,0,0.1,0.1,0.2,0.2C9.9,6.9,10,7,10.1,7.2c0.3,0.2,0.7,0.5,1.2,0.5C11.8,7.6,12.3,7.4,12.8,7.2c0.1-0.2,0.4-0.4,0.6-0.5
		c0.2-0.1,0.1-0.3,0.3-0.3c0.1,0,0,0.1-0.1,0.3C13.3,6.9,13,7.1,12.8,7.2L12.8,7.2L12.8,7.2z"/>
	<path d="M11.7,5.7L11.7,5.7C11.7,5.6,11.7,5.6,11.7,5.7c0.1-0.1,0.2-0.1,0.3-0.1c0.1,0,0.2,0.1,0.1,0.1c0,0-0.1,0.1-0.1,0.1
		c-0.1,0-0.1,0-0.1-0.1C11.8,5.7,11.7,5.7,11.7,5.7z"/>
	<path d="M11.1,5.7c0,0.1-0.1,0-0.2,0.1c0,0-0.1,0.1-0.1,0.1c-0.1,0-0.1,0-0.1-0.1c0-0.1,0.1-0.1,0.1-0.1C10.9,5.6,11,5.5,11.1,5.7
		C11.1,5.6,11.1,5.6,11.1,5.7L11.1,5.7L11.1,5.7L11.1,5.7z"/>
</g>
</svg>
